<svg width="452" height="795" viewBox="0 0 452 795" fill="none" xmlns="http://www.w3.org/2000/svg">
<path d="M149.812 733.817L169.13 765.455L188.448 733.817H190.601L170.036 767.429V790.998H168.28V767.429L147.715 733.817H149.812Z" fill="white" stroke="white" stroke-width="7" stroke-miterlimit="10"/>
<path d="M409.798 774.939V733.817H411.506V774.996C411.506 784.517 420.76 789.22 428.858 789.22C437.011 789.22 446.211 784.517 446.211 774.939V733.817H447.918V774.996C447.918 785.492 437.782 790.998 428.858 790.998C419.879 790.998 409.798 785.492 409.798 774.939Z" fill="white" stroke="white" stroke-width="7" stroke-miterlimit="10"/>
<path d="M298.436 729.054H292.541L266.839 791H275.151L282.991 772.546L307.75 772.489L315.708 790.887H324.02L298.436 729.054ZM286.057 765.175L295.489 742.276L304.803 765.175H286.057Z" fill="white"/>
<path d="M57.1807 729.054H51.0838L28.6495 760.656L6.27449 729.054H0.118387L0 790.943H7.81351V744.141L26.5186 770.828H30.8397L49.5448 743.969V791H57.1807V729.054Z" fill="white"/>
<path d="M410.961 0H407.389C405.046 0 402.703 0.292832 400.478 0.878495C398.252 1.46416 396.202 2.28409 394.27 3.33828C394.27 3.33828 332.482 40.1179 294.824 83.2228C292.481 85.9168 290.197 88.5523 287.913 91.2463L288.265 90.8364H147.588C145.421 88.318 143.254 85.7411 141.029 83.2228C103.371 40.1179 41.5833 3.33828 41.5833 3.33828C37.7179 1.17133 33.2083 0 28.4644 0H24.9504V137.338L24.7162 137.279V451.898C24.6576 537.522 69.2852 653.542 217.868 653.6C366.451 653.542 411.078 537.522 411.02 451.898V434.328V428.413V347.357L410.961 0ZM279.655 101.085L280.475 100.09C245.921 141.73 219.859 180.15 217.926 182.961C216.052 180.15 190.4 142.316 156.198 101.085H279.655ZM397.608 453.538C397.608 533.715 353.976 639.251 217.868 640.071C81.7598 639.31 38.1279 536.643 38.1279 451.136V190.165L38.0693 139.505L37.8936 18.3313C37.8936 18.3313 95.6986 51.3041 134.177 94.526C168.379 132.946 209.61 190.926 211.016 192.859L210.957 192.917L211.894 451.312C219.449 451.312 224.837 446.158 224.837 439.775V192.917C224.837 192.917 266.947 133.648 301.735 94.526C321.003 72.9151 344.957 53.881 364.108 40.2351C383.259 26.5891 397.608 18.3313 397.608 18.3313V453.538Z" fill="white"/>
</svg>
